<?xml version="1.0"?>
<svg width="256" height="256" xmlns="http://www.w3.org/2000/svg" xmlns:svg="http://www.w3.org/2000/svg" enable-background="new 0 0 256 256" version="1.1" xml:space="preserve">
 <g class="layer">
  <title>Layer 1</title>
  <g id="svg_1">
   <g id="svg_2">
    <path d="m174.3,93.55c32.89,0 59.76,21.43 59.76,47.74c0,26.31 -26.78,47.81 -59.76,47.81c-32.89,0 -59.67,-21.43 -59.67,-47.74c0,-26.38 26.78,-47.81 59.67,-47.81m0,-9.55c-39.54,0 -71.7,25.65 -71.7,57.36c0,31.63 32.07,57.36 71.7,57.36c39.54,0 71.7,-25.65 71.7,-57.36c0,-31.7 -32.07,-57.36 -71.7,-57.36l0,0z" data-title="Layer 0" fill="#8fb658" id="svg_3"/>
    <path d="m54.87,64.91l77.62,0l0,9.55l-77.62,0l0,-9.55z" data-title="Layer 1" fill="#4ac451" id="svg_4"/>
    <path d="m54.87,103.09l47.74,0l0,9.55l-47.74,0l0,-9.55z" data-title="Layer 2" fill="#396faf" id="svg_5"/>
    <path d="m54.87,141.36l35.8,0l0,9.55l-35.8,0l0,-9.55l0,0z" data-title="Layer 3" fill="#41558b" id="svg_6"/>
    <path d="m54.87,179.55l53.75,0l0,9.55l-53.75,0l0,-9.55z" data-title="Layer 4" fill="#5d6790" id="svg_7"/>
    <path d="m174.3,146.09l0,0c-3.28,0 -5.92,-2.19 -5.92,-4.74l0,-33.45c0,-2.62 2.64,-4.81 5.92,-4.81l0,0c3.28,0 6.01,2.11 6.01,4.81l0,33.45c0,2.62 -2.73,4.74 -6.01,4.74z" data-title="Layer 5" fill="#66c658" id="svg_8"/>
    <path d="m216.12,141.36l0,0c0,2.62 -2.64,4.74 -6.01,4.74l-35.8,0c-3.28,0 -5.92,-2.11 -5.92,-4.74l0,0c0,-2.62 2.64,-4.81 5.92,-4.81l35.8,0c3.37,0 6.01,2.19 6.01,4.81z" data-title="Layer 6" fill="#488d37" id="svg_9"/>
    <path d="m210.2,74.45l-0.09,-0.07c-0.27,-3.06 -2.37,-5.9 -5.65,-7.51l-51.11,-24.49c-1.82,-0.87 -4.01,-1.38 -6.1,-1.38l-104.31,0c-6.56,0 -11.93,4.3 -11.93,9.55l0,152.91c0,5.25 5.38,9.55 11.93,9.55l155.33,0c6.56,0 11.93,-4.3 11.93,-9.55l0,-4.74l-6.01,0l0,4.74c0,2.62 -2.64,4.81 -5.92,4.81l-155.33,0c-3.28,0 -5.92,-2.11 -5.92,-4.81l0,-152.91c0,-2.62 2.64,-4.74 5.92,-4.74l101.58,0l0,19.09c0,5.25 5.38,9.55 11.93,9.55l47.65,0c0,0.22 0.09,0.44 0.09,0.66l0,8.89l6.01,0l0,-8.89c0,-0.22 -0.09,-0.44 -0.09,-0.66l0.09,0z" data-title="Layer 7" fill="#8a8b50" id="svg_10"/>
   </g>
  </g>
 </g>
</svg>