<svg xmlns="http://www.w3.org/2000/svg" width="206" height="206" style="shape-rendering:geometricPrecision;text-rendering:geometricPrecision;image-rendering:optimizeQuality;fill-rule:evenodd;clip-rule:evenodd">
  <path fill="#6fe31f" d="M86.5.5c-1.0184 5.40688-2.3517 10.7402-4 16-2.3876.8485-4.7209 1.8485-7 3-.709.904-1.709 1.2373-3 1-2.7406.2073-5.0739 1.2073-7 3-1.0137 1.1737-2.347 1.8404-4 2-2.174.2497-3.8406 1.2497-5 3-2.6979.3449-4.6979 1.6782-6 4-1.109.0569-2.109.3902-3 1-.6524-.9486-.9857-2.1153-1-3.5.5731-4.1576 1.0731-8.3243 1.5-12.5.6622-1.4839 1.4955-2.8172 2.5-4 10.9278-7.07324 22.9278-11.40657 36-13Z" style="opacity:.992"/>
  <path fill="#7cf222" d="M88.5-.5h29c16.525 2.76338 31.525 9.09671 45 19 .473 1.4063 1.473 2.073 3 2 1 .3333 1.667 1 2 2 .762 1.7624 2.096 2.7624 4 3 3 2.3333 5.667 5 8 8 .238 1.9044 1.238 3.2377 3 4 2.043 1.0794 3.376 2.746 4 5-.073 1.5269.594 2.5269 2 3-.073 1.5269.594 2.5269 2 3 .838.3417 1.172 1.0084 1 2-.073 1.5269.594 2.5269 2 3 2.958 4.1911 4.958 8.8578 6 14 .095 2.2857.762 4.2857 2 6 1.713 4.5674 3.046 9.2341 4 14v30c-.667 0-1 .333-1 1-1.285 3.089-1.951 6.422-2 10-.667 0-1 .333-1 1-4.364.406-8.697 1.072-13 2-1.226-.02-2.226-.353-3-1 3.923-14.448 4.923-29.115 3-44 .268-1.599-.066-2.9324-1-4-.538-1.6172-.871-3.2839-1-5 .172-.9916-.162-1.6583-1-2v-1c.172-.9916-.162-1.6583-1-2-3.102-10.2067-8.269-19.2067-15.5-27 5.573 8.8081 10.406 18.1414 14.5 28-.237 1.291.096 2.291 1 3-.268 1.599.066 2.9324 1 4v1c1.305 11.3303 1.305 22.664 0 34 .268 1.599-.066 2.932-1 4-1.648 3.929-3.315 7.929-5 12-6.435.269-12.768-.397-19-2-1.213-.247-1.88-.914-2-2-.172-.992.162-1.658 1-2 1.203-1.443 1.703-3.109 1.5-5-1.045.873-1.878 1.873-2.5 3 0 .667-.333 1-1 1-1.109.057-2.109.39-3 1 .667-2.333 1.333-4.667 2-7 9.052-12.824 13.719-27.1577 14-43 1.122-1.7884 1.289-3.7884.5-6-1.783 5.5675-4.117 10.9008-7 16-.464-.5944-.631-1.2611-.5-2 1.271-15.6616 1.271-31.3283 0-47v-5c-11.251.8126-21.917 3.4792-32 8-2.053-.0979-3.72.5687-5 2-4.586.9598-8.586 2.9598-12 6-1.784.3925-3.45 1.0592-5 2-3.514-9.6855-3.847-19.5189-1-29.5-.405-.9454-1.072-1.6121-2-2 1.293-.49 2.627-.6567 4-.5h8c7.088 1.7561 14.088 3.5894 21 5.5-6.669-3.2789-13.669-5.4456-21-6.5h-1c-2.448-.9731-5.115-1.3064-8-1-7.39-1.3522-14.7232-1.0189-22 1h-5c1.6483-5.2598 2.9816-10.59312 4-16 .9916.17158 1.6583-.161754 2-1Zm98 78c.129 1.7161.462 3.3828 1 5 .149 1.052-.017 2.052-.5 3-.21-1.5581-.71-2.8915-1.5-4v-1c-.237-1.291.096-2.291 1-3Z" style="opacity:.995"/>
  <path fill="#fcfdf2" d="M109.5 15.5c-4.679-.1658-9.345.0008-14 .5 1.6341.4935 3.3008.6602 5 .5-1.7646.9614-3.7646 1.2947-6 1-2.1074-.9682-4.4407-1.3016-7-1 7.2768-2.0189 14.61-2.3522 22-1Z" style="opacity:.098"/>
  <path fill="#fdfef5" d="M109.5 16.5v-1c2.885-.3064 5.552.0269 8 1v1h-7c0-.6667-.333-1-1-1Z" style="opacity:.083"/>
  <path fill="#fefefa" d="M82.5 16.5h4c-3.3544 1.7576-7.021 2.7576-11 3 2.2791-1.1515 4.6124-2.1515 7-3Z" style="opacity:.137"/>
  <path fill="#71ea11" d="M100.5 16.5h9c.667 0 1 .3333 1 1-1.373-.1567-2.707.01-4 .5.928.3879 1.595 1.0546 2 2-2.847 9.9811-2.514 19.8145 1 29.5v1c-1.527-.073-2.527.5937-3 2-1.527-.073-2.527.5937-3 2-1.904.2376-3.238 1.2376-4 3-1.9044.2376-3.2377 1.2376-4 3 0 .6667-.3333 1-1 1-4.5719 3.0633-8.7385 6.73-12.5 11-.3988-.2284-.5654-.5618-.5-1 2.763-5.2015 5.763-10.2015 9-15 .7674-.672 1.4341-1.5053 2-2.5-1.6398-.3478-2.9732.1522-4 1.5-1.3333.3333-2.6667.6667-4 1-3.3653-12.289-3.6986-24.6223-1-37 3.5424-1.1746 7.2091-1.8413 11-2 2.2354.2947 4.2354-.0386 6-1Z" style="opacity:.996"/>
  <path fill="#fdfdf4" d="M118.5 17.5v-1c7.331 1.0544 14.331 3.2211 21 6.5-6.912-1.9106-13.912-3.7439-21-5.5Z" style="opacity:.165"/>
  <path fill="#fffef8" d="M162.5 18.5c1.527-.073 2.527.5937 3 2-1.527.073-2.527-.5937-3-2Z" style="opacity:.004"/>
  <path fill="#fcfdf6" d="M72.5 20.5c-1.9261 1.7927-4.2594 2.7927-7 3 1.9261-1.7927 4.2594-2.7927 7-3Z" style="opacity:.051"/>
  <path fill="#f9feea" d="M167.5 22.5c1.904.2376 3.238 1.2376 4 3-1.904-.2376-3.238-1.2376-4-3Z" style="opacity:.004"/>
  <path fill="#68d81e" d="M50.5 13.5c-1.0045 1.1828-1.8378 2.5161-2.5 4-.4269 4.1757-.9269 8.3424-1.5 12.5.0143 1.3847.3476 2.5514 1 3.5-.3333.6667-.6667 1.3333-1 2-.3333 1-1 1.6667-2 2-3.3333 1.3333-5.6667 3.6667-7 7-.3333 1-1 1.6667-2 2-1.7624.7623-2.7624 2.0956-3 4-1.4063.4731-2.073 1.4731-2 3-1.4063.4731-2.073 1.4731-2 3-1.4063.4731-2.073 1.4731-2 3-1.1737 1.0137-1.8404 2.347-2 4 .1716.9916-.1618 1.6583-1 2-2.2943 2.8695-3.6277 6.2029-4 10-1.2949 2.4791-2.2949 5.1458-3 8-.7216.4175-1.2216 1.0842-1.5 2-2.1225-8.5019-4.2892-16.8352-6.5-25 8.7232-20.492 22.7232-36.1586 42-47Z" style="opacity:.997"/>
  <path fill="#c6f49e" d="M72.5 23.5c-.4731 1.4063-1.4731 2.073-3 2 .4731-1.4063 1.4731-2.073 3-2Z" style="opacity:.522"/>
  <path fill="#fefdfb" d="M61.5 25.5c-1.1594 1.7503-2.826 2.7503-5 3 1.1594-1.7503 2.826-2.7503 5-3Z" style="opacity:.2"/>
  <path fill="#fdfeec" d="M145.5 27.5c.997-1.2125 1.997-1.0458 3 .5-1.077.4696-2.077.3029-3-.5Z" style="opacity:.996"/>
  <path fill="#fafdf4" d="M56.5 28.5c-1.6475 1.8264-3.6475 3.1597-6 4 1.3021-2.3218 3.3021-3.6551 6-4Z" style="opacity:.254"/>
  <path fill="#fdfdf1" d="M50.5 32.5c-.7623 1.7624-2.0956 2.7624-4 3 .3333-.6667.6667-1.3333 1-2 .891-.6098 1.891-.9431 3-1Z" style="opacity:.063"/>
  <path fill="#fcfef6" d="M163.5 36.5c-.661-1.2175-1.328-2.5508-2-4-10.153 1.705-20.153 4.0383-30 7 10.083-4.5208 20.749-7.1874 32-8v5Z" style="opacity:.191"/>
  <path fill="#f8fee4" d="M179.5 33.5c1.762.7623 2.762 2.0956 3 4-1.762-.7623-2.762-2.0956-3-4Z" style="opacity:.502"/>
  <path fill="#fefefc" d="M131.5 39.5c-1.28 1.4313-2.947 2.0979-5 2 1.28-1.4313 2.947-2.0979 5-2Z" style="opacity:.18"/>
  <path fill="#fafbeb" d="M44.5 37.5c-2 2.6667-4.3333 5-7 7 1.3333-3.3333 3.6667-5.6667 7-7Z" style="opacity:.094"/>
  <path fill="#67df0e" d="M83.5 19.5c-2.6986 12.3777-2.3653 24.711 1 37-.6667 1-1.3333 2-2 3-3.3333 1.3333-5.6667 3.6667-7 7 0 .6667-.3333 1-1 1-1.7503 1.1594-2.7503 2.826-3 5-2.039 1.411-3.039 3.411-3 6 .1716.9916-.1618 1.6583-1 2-1.4238 2.0145-2.0905 4.3478-2 7-1.5823 3.3756-2.2489 7.0422-2 11-.8238 3.812-1.3238 7.812-1.5 12-.6054 1.981-1.6054 2.315-3 1-.4221-1.855-.9221-3.689-1.5-5.5-3.799-4.478-6.799-9.478-9-15 .4574-.414.7907-.914 1-1.5-1.6097-1.9948-2.9431-4.1614-4-6.5.4574-.414.7907-.914 1-1.5-2.6741-.9991-3.3408-2.6658-2-5-3.3477-6.553-5.1811-13.553-5.5-21-.3826-.556-.8826-.8893-1.5-1 7.4965-13.163 18.1631-22.8297 32-29 1.5269.073 2.5269-.5937 3-2 3.5541-1.6089 7.2207-2.9422 11-4Z" style="opacity:.999"/>
  <path fill="#fdfef5" d="M126.5 41.5c-3.682 2.5078-7.682 4.5078-12 6 3.414-3.0402 7.414-5.0402 12-6Z" style="opacity:.127"/>
  <path fill="#f4fee8" d="M186.5 42.5c1.406.4731 2.073 1.4731 2 3-1.406-.4731-2.073-1.4731-2-3Z" style="opacity:.333"/>
  <path fill="#fdfdf7" d="M35.5 46.5c-.2376 1.9044-1.2376 3.2377-3 4 .2376-1.9044 1.2376-3.2377 3-4Z" style="opacity:.235"/>
  <path fill="#f5ffe9" d="M188.5 45.5c1.406.4731 2.073 1.4731 2 3-1.406-.4731-2.073-1.4731-2-3Z" style="opacity:.145"/>
  <path fill="#fefef6" d="M114.5 47.5c-1.159 1.7503-2.826 2.7503-5 3v-1c1.55-.9408 3.216-1.6075 5-2Z" style="opacity:.192"/>
  <path fill="#fefffd" d="M109.5 50.5c-.473 1.4063-1.473 2.073-3 2 .473-1.4063 1.473-2.073 3-2Z" style="opacity:.218"/>
  <path fill="#fefdfb" d="M32.5 50.5c.073 1.5269-.5937 2.5269-2 3-.073-1.5269.5937-2.5269 2-3Z" style="opacity:.016"/>
  <path fill="#f4fee4" d="M191.5 50.5c1.406.4731 2.073 1.4731 2 3-1.406-.4731-2.073-1.4731-2-3Z" style="opacity:.1"/>
  <path fill="#fefefd" d="M30.5 53.5c.073 1.5269-.5937 2.5269-2 3-.073-1.5269.5937-2.5269 2-3Z" style="opacity:.124"/>
  <path fill="#fbfdf0" d="M90.5 56.5c-.3417-.8382-1.0084-1.1716-2-1 1.0268-1.3478 2.3602-1.8478 4-1.5-.5659.9947-1.2326 1.828-2 2.5Z" style="opacity:.169"/>
  <path fill="#fefefd" d="M106.5 52.5c-.473 1.4063-1.473 2.073-3 2 .473-1.4063 1.473-2.073 3-2Z" style="opacity:.155"/>
  <path fill="#fefefb" d="M103.5 54.5c-.762 1.7624-2.096 2.7624-4 3 .762-1.7624 2.096-2.7624 4-3Z" style="opacity:.172"/>
  <path fill="#fefcf7" d="M28.5 56.5c.073 1.5269-.5937 2.5269-2 3-.073-1.5269.5937-2.5269 2-3Z" style="opacity:.176"/>
  <path fill="#fbfdf4" d="M88.5 55.5c-1.6475 1.8264-3.6475 3.1597-6 4 .6667-1 1.3333-2 2-3 1.3333-.3333 2.6667-.6667 4-1Z" style="opacity:.229"/>
  <path fill="#fefefa" d="M99.5 57.5c-.7623 1.7624-2.0956 2.7624-4 3 .7623-1.7624 2.0956-2.7624 4-3Z" style="opacity:.245"/>
  <path fill="#f3fde3" d="M135.5 64.5c.79-1.2942 1.79-2.4609 3-3.5-.594-.4643-1.261-.631-2-.5 1.6-1.1444 3.267-2.3111 5-3.5 1.135-.7494 2.135-.5827 3 .5-2.479 3.0648-5.479 5.3981-9 7Z" style="opacity:.193"/>
  <path fill="#fafeef" d="M184.5 72.5c-.667 0-1 .3333-1 1-4.094-9.8586-8.927-19.1919-14.5-28 7.231 7.7933 12.398 16.7933 15.5 27Z" style="opacity:.102"/>
  <path fill="#fdfefd" d="M26.5 59.5c.2709 1.8797-.3958 3.213-2 4 .1596-1.653.8263-2.9863 2-4Z" style="opacity:.19"/>
  <path fill="#fbfdef" d="M82.5 59.5c-2 2.6667-4.3333 5-7 7 1.3333-3.3333 3.6667-5.6667 7-7Z" style="opacity:.051"/>
  <path fill="#fcfcf7" d="M23.5 65.5c-.7635 3.6368-2.0968 6.9701-4 10 .3723-3.7971 1.7057-7.1305 4-10Z" style="opacity:.199"/>
  <path fill="#fafcf3" d="M94.5 61.5c-4.7067 5.8907-10.0401 10.724-16 14.5.8994-1.6516 1.8994-3.1516 3-4.5-.0654.4382.1012.7716.5 1 3.7615-4.27 7.9281-7.9367 12.5-11Z" style="opacity:.285"/>
  <path fill="#fefefc" d="M134.5 65.5c-2.4 3.4031-5.4 6.0698-9 8 2.4-3.4031 5.4-6.0698 9-8Z" style="opacity:.215"/>
  <path fill="#fefefb" d="M74.5 67.5c-.2497 2.174-1.2497 3.8406-3 5 .2497-2.174 1.2497-3.8406 3-5Z" style="opacity:.178"/>
  <path fill="#f8feea" d="M199.5 67.5c1.574 1.6016 2.241 3.6016 2 6-1.238-1.7143-1.905-3.7143-2-6Z" style="opacity:.157"/>
  <path fill="#fffef5" d="M184.5 72.5c.838.3417 1.172 1.0084 1 2-.838.3417-1.172 1.0084-1 2-.904-.709-1.237-1.709-1-3 .667 0 1-.3333 1-1Z" style="opacity:.089"/>
  <path fill="#fcfdf5" d="M71.5 72.5c-.4925 2.3185-1.4925 4.3185-3 6-.039-2.589.961-4.589 3-6Z" style="opacity:.139"/>
  <path fill="#fefef6" d="M185.5 75.5c.838.3417 1.172 1.0084 1 2-.904.709-1.237 1.709-1 3-.934-1.0676-1.268-2.401-1-4 .667 0 1-.3333 1-1Z" style="opacity:.088"/>
  <path fill="#f8fee8" d="M170.5 75.5c-1.803 4.2682-4.137 8.2682-7 12-1.282-1.4584-1.282-2.7918 0-4-.131.7389.036 1.4056.5 2 2.883-5.0992 5.217-10.4325 7-16 .789 2.2116.622 4.2116-.5 6Z" style="opacity:.155"/>
  <path fill="#fdfef9" d="M119.5 79.5c-1.257 2.9274-3.257 5.2607-6 7 1.257-2.9274 3.257-5.2607 6-7Z" style="opacity:.22"/>
  <path fill="#67d61c" d="M37.5 54.5c.6174.1107 1.1174.444 1.5 1 .3189 7.447 2.1523 14.447 5.5 21-1.3408 2.3342-.6741 4.0009 2 5-.2093.586-.5426 1.086-1 1.5 1.0569 2.3386 2.3903 4.5052 4 6.5-.2093.586-.5426 1.086-1 1.5 2.201 5.522 5.201 10.522 9 15 .5779 1.811 1.0779 3.645 1.5 5.5 1.3946 1.315 2.3946.981 3-1 .1762-4.188.6762-8.188 1.5-12-.2798 16.64-.4465 33.306-.5 50-.2724 2.754-.7724 5.421-1.5 8-.6174.111-1.1174.444-1.5 1-12.7241-11.925-23.0574-25.592-31-41-.7697-1.098-1.603-1.098-2.5 0-3.9814-18.5815-2.148-36.5815 5.5-54 1.3063-3.1207 3.1397-5.7874 5.5-8Z" style="opacity:.997"/>
  <path fill="#fcfdf7" d="M19.5 75.5c-.3984 4.2607-1.3984 8.2607-3 12v-4c.7051-2.8542 1.7051-5.5209 3-8Z" style="opacity:.016"/>
  <path fill="#fdfdf3" d="M67.5 80.5c.0905 2.6522-.5762 4.9855-2 7-.0905-2.6522.5762-4.9855 2-7Z" style="opacity:.145"/>
  <path fill="#6ad12a" d="M8.5 60.5c2.2108 8.1648 4.3775 16.4981 6.5 25 .2784-.9158.7784-1.5825 1.5-2v4c-1.4551 11.7183-1.1218 23.385 1 35-.0905 2.652.5762 4.985 2 7 4.1045 10.875 9.7712 20.875 17 30 .9194 2.589 2.586 4.589 5 6 3.2889 2.116 6.4556 4.449 9.5 7 1.1825-3.026 2.3492-6.026 3.5-9 1.3852-1.447 1.0518-2.447-1-3-13.9204-11.6-22.9204-26.266-27-44 .897-1.098 1.7303-1.098 2.5 0 7.9426 15.408 18.2759 29.075 31 41 .3826-.556.8826-.889 1.5-1-1.0264 6.222-2.5264 12.222-4.5 18 3.909-3.524 7.0757-7.524 9.5-12 4.6793 4.678 9.6793 9.011 15 13v2c-1.4498 3.285-3.7832 5.785-7 7.5 2.5037.698 4.837 1.531 7 2.5-2.4767.62-2.4767 1.62 0 3 5.4358 2.534 10.6025 5.534 15.5 9 6.467 3.212 13.3 4.879 20.5 5v1h-28c-9.3131-1.579-18.3131-4.245-27-8-1.6815-1.508-3.6815-2.508-6-3-8.0935-3.105-15.0935-7.772-21-14-.4731-1.406-1.4731-2.073-3-2-2.3333-1.667-4.3333-3.667-6-6 .073-1.527-.5937-2.527-2-3-7.5451-7.747-13.3785-16.747-17.5-27-3.25829-8.59-5.75829-17.257-7.5-26v-28c1.7896-9.7028 4.7896-19.0361 9-28Z" style="opacity:.995"/>
  <path fill="#fefefb" d="M113.5 86.5c-.238 1.9044-1.238 3.2377-3 4 .238-1.9044 1.238-3.2377 3-4Z" style="opacity:.035"/>
  <path fill="#fdfefa" d="M110.5 90.5c-.238 1.9044-1.238 3.2377-3 4 .238-1.9044 1.238-3.2377 3-4Z" style="opacity:.172"/>
  <path fill="#7be831" d="M136.5 60.5c.739-.131 1.406.0357 2 .5-1.21 1.0391-2.21 2.2058-3 3.5 0 .6667-.333 1-1 1-3.6 1.9302-6.6 4.5969-9 8-1.667 2.3333-3.667 4.3333-6 6-2.743 1.7393-4.743 4.0726-6 7-1.762.7623-2.762 2.0956-3 4-1.762.7623-2.762 2.0956-3 4-3.002 2.6612-5.002 5.995-6 10-.16 1.653-.826 2.986-2 4-1.7927 1.926-2.7927 4.259-3 7-.9013.79-1.5679 1.79-2 3-1.3221-.17-2.4887.163-3.5 1-1.3333-1.333-2.6667-2.667-4-4-.3826.556-.8826.889-1.5 1 10.0213-25.0213 27.021-43.688 51-56Z" style="opacity:.986"/>
  <path fill="#fdfefb" d="M65.5 87.5c-.1459 3.8875-.8126 7.5542-2 11-.2489-3.9578.4177-7.6244 2-11Z" style="opacity:.1"/>
  <path fill="#fcfdf6" d="M107.5 94.5c-1.5 3.673-3.5 7.006-6 10 .998-4.005 2.998-7.3388 6-10Z" style="opacity:.154"/>
  <path fill="#fdfef7" d="M185.5 81.5c.79 1.1085 1.29 2.4419 1.5 4 .483-.948.649-1.948.5-3 .934 1.0676 1.268 2.401 1 4-.474 9.7254-1.474 19.392-3 29 1.305-11.336 1.305-22.6697 0-34Z" style="opacity:.174"/>
  <path fill="#fefefc" d="M99.5 108.5c-.2073 2.741-1.2073 5.074-3 7 .2073-2.741 1.2073-5.074 3-7Z" style="opacity:.183"/>
  <path fill="#fefcf8" d="M96.5 115.5c.0979 2.053-.5687 3.72-2 5v-2c.4321-1.21 1.0987-2.21 2-3Z" style="opacity:.143"/>
  <path fill="#f7fdf0" d="M159.5 125.5c.172-.992-.162-1.658-1-2 .622-1.127 1.455-2.127 2.5-3 .203 1.891-.297 3.557-1.5 5Z" style="opacity:.156"/>
  <path fill="#fefefa" d="M204.5 118.5c.178 3.622-.489 6.956-2 10 .049-3.578.715-6.911 2-10Z" style="opacity:.225"/>
  <path fill="#fafcf4" d="M17.5 122.5c1.4238 2.015 2.0905 4.348 2 7-1.4238-2.015-2.0905-4.348-2-7Z" style="opacity:.076"/>
  <path fill="#fefefa" d="M157.5 124.5c-1.302 2.322-3.302 3.655-6 4 .806-1.228 1.806-2.228 3-3 .891-.61 1.891-.943 3-1Z" style="opacity:.142"/>
  <path fill="#fcfdf7" d="M94.5 120.5c-.7313 4.938-2.0646 9.605-4 14 .4205-5.029 1.7538-9.695 4-14Z" style="opacity:.191"/>
  <path fill="#a0ee69" d="M156.5 118.5c-.667 2.333-1.333 4.667-2 7-1.194.772-2.194 1.772-3 3-.342.838-1.008 1.172-2 1-1.67.251-3.17.918-4.5 2-.399-.228-.565-.562-.5-1 4.333-3.667 8.333-7.667 12-12Z" style="opacity:.973"/>
  <path fill="#70e41f" d="M201.5 129.5c-1.203 3.61-2.203 7.277-3 11-1.431 1.28-2.098 2.947-2 5-1.174 1.014-1.84 2.347-2 4 .172.992-.162 1.658-1 2-1.75 1.159-2.75 2.826-3 5-.667.333-1.333.667-2 1-5.883.314-11.55-.02-17-1 5.729-8.128 10.396-16.794 14-26 .774.647 1.774.98 3 1 4.303-.928 8.636-1.594 13-2Z" style="opacity:.994"/>
  <path fill="#fdfcf6" d="M202.5 128.5c-.361 4.415-1.694 8.415-4 12 .797-3.723 1.797-7.39 3-11 0-.667.333-1 1-1Z" style="opacity:.114"/>
  <path fill="#fefefe" d="M149.5 129.5c-1.492 2.422-3.492 3.088-6 2 .124-.607.457-.94 1-1-.065.438.101.772.5 1 1.33-1.082 2.83-1.749 4.5-2Z" style="opacity:.056"/>
  <path fill="#fefdf9" d="M184.5 119.5c-1.114 7.886-4.114 14.886-9 21 1.061-3.122 2.395-6.122 4-9 1.685-4.071 3.352-8.071 5-12Z" style="opacity:.11"/>
  <path fill="#fefdfb" d="M175.5 140.5c.073 1.527-.594 2.527-2 3-.073-1.527.594-2.527 2-3Z" style="opacity:.169"/>
  <path fill="#fdfdf8" d="M198.5 140.5c.098 2.053-.569 3.72-2 5-.098-2.053.569-3.72 2-5Z" style="opacity:.216"/>
  <path fill="#fefefb" d="M173.5 143.5c.073 1.527-.594 2.527-2 3-.073-1.527.594-2.527 2-3Z" style="opacity:.004"/>
  <path fill="#fefffd" d="M196.5 145.5c.271 1.88-.396 3.213-2 4 .16-1.653.826-2.986 2-4Z" style="opacity:.193"/>
  <path fill="#fdfdf8" d="M171.5 146.5c-.58 2.249-1.913 3.915-4 5 .58-2.249 1.913-3.915 4-5Z" style="opacity:.173"/>
  <path fill="#6fd92a" d="M94.5 118.5v2c-2.2462 4.305-3.5795 8.971-4 14-1.5637 9.143-3.2304 18.143-5 27-.71 2.393-1.3767 4.893-2 7.5.5944.464 1.2611.631 2 .5 11.2511-1.65 22.251-4.317 33-8 3.057 1.336 6.057 3.169 9 5.5 2.734.21 5.234 1.044 7.5 2.5.414-.457.914-.791 1.5-1l3 3c-1.21.432-2.21 1.099-3 2-.709.904-1.709 1.237-3 1-3.548.63-6.881 1.63-10 3-5.592 1.493-11.426 2.159-17.5 2-7.4971.375-14.6638-.625-21.5-3-.709-.904-1.709-1.237-3-1-5.3207-3.989-10.3207-8.322-15-13 6.7423-15.243 13.0757-30.576 19-46 .6174-.111 1.1174-.444 1.5-1 1.3333 1.333 2.6667 2.667 4 4 1.0113-.837 2.1779-1.17 3.5-1Z" style="opacity:.993"/>
  <path fill="#fbfcf0" d="M193.5 151.5c-.25 2.174-1.25 3.841-3 5 .25-2.174 1.25-3.841 3-5Z" style="opacity:.18"/>
  <path fill="#fffefd" d="M164.5 154.5c0 2-1 3-3 3 .667-1.333 1.667-2.333 3-3Z" style="opacity:.215"/>
  <path fill="#6bdf1a" d="M158.5 127.5c.12 1.086.787 1.753 2 2 6.232 1.603 12.565 2.269 19 2-1.605 2.878-2.939 5.878-4 9-1.406.473-2.073 1.473-2 3-1.406.473-2.073 1.473-2 3-2.087 1.085-3.42 2.751-4 5-.667 1.333-1.667 2.333-3 3-1.333.667-2.333 1.667-3 3-.333 1-1 1.667-2 2-2.249.58-3.915 1.913-5 4-1.527-.073-2.527.594-3 2-1.527-.073-2.527.594-3 2-.342.838-1.008 1.172-2 1-2.454.727-4.787 1.727-7 3l-3-3c-.586.209-1.086.543-1.5 1-2.266-1.456-4.766-2.29-7.5-2.5-2.943-2.331-5.943-4.164-9-5.5 16.741-7.414 30.074-18.747 40-34Z" style="opacity:.992"/>
  <path fill="#fdfdf9" d="M159.5 159.5c-1.085 2.087-2.751 3.42-5 4 1.085-2.087 2.751-3.42 5-4Z" style="opacity:.194"/>
  <path fill="#d3f1b7" d="M36.5 159.5c2.414 1.411 4.0806 3.411 5 6-2.414-1.411-4.0806-3.411-5-6Z" style="opacity:.447"/>
  <path fill="#e5efc6" d="M53.5 160.5c2.0518.553 2.3852 1.553 1 3-.0569-1.109-.3902-2.109-1-3Z" style="opacity:.086"/>
  <path fill="#fcfdf4" d="M190.5 156.5c-1.351 4.042-3.685 7.375-7 10 1.92-2.839 3.587-5.839 5-9 .667-.333 1.333-.667 2-1Z" style="opacity:.004"/>
  <path fill="#f8fbef" d="M85.5 161.5v8c-.7389.131-1.4056-.036-2-.5.6233-2.607 1.29-5.107 2-7.5Z" style="opacity:.064"/>
  <path fill="#fefdfc" d="M154.5 163.5c-.473 1.406-1.473 2.073-3 2 .473-1.406 1.473-2.073 3-2Z" style="opacity:.204"/>
  <path fill="#fdfdf9" d="M151.5 165.5c-.473 1.406-1.473 2.073-3 2 .473-1.406 1.473-2.073 3-2Z" style="opacity:.192"/>
  <path fill="#fbfcf4" d="M183.5 166.5c-.919 2.589-2.586 4.589-5 6 .919-2.589 2.586-4.589 5-6Z" style="opacity:.024"/>
  <path fill="#f0f7e0" d="M24.5 169.5c1.4063.473 2.073 1.473 2 3-1.4063-.473-2.073-1.473-2-3Z" style="opacity:.004"/>
  <path fill="#fdfdf6" d="M146.5 168.5c-2.747 2.707-6.08 4.373-10 5 .79-.901 1.79-1.568 3-2 2.213-1.273 4.546-2.273 7-3Z" style="opacity:.137"/>
  <path fill="#fffefd" d="M176.5 174.5c0 1.333-.667 2-2 2 .333-1 1-1.667 2-2Z" style="opacity:.165"/>
  <path fill="#fefcf5" d="M81.5 175.5c1.291-.237 2.291.096 3 1-1.109.057-2.109.39-3 1v-2Z" style="opacity:.188"/>
  <path fill="#fefdfa" d="M133.5 174.5c-2.881 2.18-6.214 3.18-10 3 3.119-1.37 6.452-2.37 10-3Z" style="opacity:.111"/>
  <path fill="#f0f5d5" d="M32.5 178.5c1.5269-.073 2.5269.594 3 2-1.5269.073-2.5269-.594-3-2Z" style="opacity:.38"/>
  <path fill="#fcfdf6" d="M172.5 178.5c-1.411 2.414-3.411 4.081-6 5 1.411-2.414 3.411-4.081 6-5Z" style="opacity:.208"/>
  <path fill="#fcfdf8" d="M166.5 183.5c-1.492 2.823-3.826 4.49-7 5 2.05-2.047 4.383-3.714 7-5Z" style="opacity:.004"/>
  <path fill="#67d51d" d="M171.5 156.5c5.45.98 11.117 1.314 17 1-1.413 3.161-3.08 6.161-5 9-2.414 1.411-4.081 3.411-5 6-.333 1-1 1.667-2 2-1 .333-1.667 1-2 2-.333 1-1 1.667-2 2-2.589.919-4.589 2.586-6 5-2.617 1.286-4.95 2.953-7 5-1.527-.073-2.527.594-3 2-2.174.25-3.841 1.25-5 3-1.014 1.174-2.347 1.84-4 2-2.741.207-5.074 1.207-7 3-1.714 1.238-3.714 1.905-6 2-3.897.555-7.563 1.555-11 3-1.765.961-3.765 1.295-6 1-7.2-.121-14.033-1.788-20.5-5-4.8975-3.466-10.0642-6.466-15.5-9-2.4767-1.38-2.4767-2.38 0-3 36.094 6.748 66.094-3.585 90-31Z" style="opacity:.995"/>
  <path fill="#fefdf9" d="M159.5 188.5c-.473 1.406-1.473 2.073-3 2 .473-1.406 1.473-2.073 3-2Z" style="opacity:.19"/>
  <path fill="#fdfdf6" d="M156.5 190.5c-1.159 1.75-2.826 2.75-5 3 1.159-1.75 2.826-2.75 5-3Z" style="opacity:.112"/>
  <path fill="#e8f7d8" d="M56.5 194.5c2.3185.492 4.3185 1.492 6 3-2.589.039-4.589-.961-6-3Z" style="opacity:.071"/>
  <path fill="#f8fcee" d="M147.5 195.5c-1.926 1.793-4.259 2.793-7 3 1.926-1.793 4.259-2.793 7-3Z" style="opacity:.124"/>
  <path fill="#fcfcf5" d="M134.5 200.5c-3.263 2.068-6.93 3.068-11 3 3.437-1.445 7.103-2.445 11-3Z" style="opacity:.125"/>
</svg>
